<svg version="1.1" xmlns="http://www.w3.org/2000/svg" xmlns:xlink="http://www.w3.org/1999/xlink" width="101.6465" height="128.122" viewBox="0,0,101.6465,128.122"><g transform="translate(-189.0005,-103)"><g data-paper-data="{&quot;isPaintingLayer&quot;:true}" fill-rule="nonzero" stroke-linecap="butt" stroke-linejoin="miter" stroke-miterlimit="10" stroke-dasharray="" stroke-dashoffset="0" style="mix-blend-mode: normal"><g stroke-width="2.5"><path d="M232.025,210.724v19.148" fill="none" stroke="#ffdb5d"/><path d="M219.187,229.872c3.254,0 3.254,-3.148 6.508,-3.148c3.254,0 3.254,3.148 6.508,3.148c3.252,0 3.252,-3.148 6.504,-3.148c3.253,0 3.253,3.148 6.505,3.148" fill="none" stroke="#ffdb5d"/><path d="M233.733,201.019v11.824c0,1.638 -1.985,2.458 -3.145,1.3l-12.365,-12.337z" fill="#fff4e3" stroke="none"/></g><g stroke-width="2.5"><path d="M203.281,202.173l10.298,10.274c2.384,2.378 3.723,5.604 3.723,8.967v5.064" fill="none" stroke="#ffdb5d"/><path d="M217.39,190.806l-12.365,12.337c-1.161,1.158 -3.146,0.338 -3.146,-1.3v-11.824z" fill="#fff4e3" stroke="none"/></g><g stroke="none" stroke-width="1"><path d="M272.173,191.775c-19.027,18.984 -49.876,18.984 -68.903,0c-19.026,-18.984 -19.026,-49.763 0,-68.748z" fill="#fff4e3"/><path d="M191.364,122.89h8.807l-8.632,-8.611h10.953l-10.846,-10.823c1.791,-0.295 3.627,-0.456 5.501,-0.456c18.488,0 33.474,14.953 33.474,33.399c0,1.688 0.019,18.83 0.019,20.666l-19.275,-14.218z" fill="#fff4e3"/><path d="M267.047,217.302l-35.005,-27.669l39.696,1.836c0,0 10.318,8.263 11.213,22.052z" fill="#fff4e3"/><path d="M259.781,179.41c-12.184,12.156 -31.935,12.156 -44.118,0c-8.809,-8.789 -11.249,-21.526 -7.319,-32.502l13.317,13.287l-5.161,-23.968z" fill="#f3e4ce"/></g><g stroke="none" stroke-width="1"><path d="M264.506,227.696c-3.656,0 -6.621,-2.958 -6.621,-6.607c0,-3.648 2.965,-6.606 6.621,-6.606c3.658,0 6.622,2.958 6.622,6.606c0,3.649 -2.964,6.607 -6.622,6.607" fill="#ce2235"/><path d="M283.725,226.123c-0.738,-0.165 -1.507,0.197 -1.837,0.877c-0.734,1.512 -2.374,2.504 -4.219,2.268c-1.794,-0.229 -3.258,-1.67 -3.509,-3.457c-0.267,-1.901 0.781,-3.592 2.366,-4.308c0.288,-3.054 1.055,-11.198 1.108,-11.544c0.066,-0.427 2.654,-0.601 2.654,-0.601l-0.01,-1.681c0.157,-2.162 1.997,-3.858 4.221,-3.782c2.16,0.075 3.94,1.911 3.947,4.067c0.001,0.598 -0.127,1.166 -0.357,1.677c-0.205,0.453 -0.032,0.97 0.407,1.206c1.281,0.688 2.151,2.036 2.151,3.589c0,2.255 -1.831,4.082 -4.091,4.082c-0.022,0 -0.043,-0.003 -0.065,-0.003c1.477,0.761 2.433,2.392 2.176,4.217c-0.254,1.804 -1.751,3.253 -3.564,3.463c-0.478,0.055 -0.941,0.027 -1.378,-0.07" fill="#ce2235"/><path d="M288.787,217.519c0,0 1.052,-0.407 0.112,0.259c-0.94,0.667 -1.252,1.443 -0.701,2.387c0.551,0.945 -2.584,-0.282 -2.584,-0.282l-0.129,-1.697l0.692,-1.055z" fill="#ce2235"/><path d="M269.945,214.344c2.826,1.643 4.732,4.689 4.732,8.188c0,3.5 -1.906,6.545 -4.732,8.189z" fill="#ffdb5d"/><path d="M273.867,223.27c-4.979,0 -9.015,-4.027 -9.015,-8.995c0,-4.967 4.036,-8.994 9.015,-8.994c4.979,0 9.014,4.027 9.014,8.994c0,4.968 -4.035,8.995 -9.014,8.995" fill="#e8441d"/><path d="M273.867,218.362c-2.263,0 -4.096,-1.83 -4.096,-4.087c0,-2.257 1.833,-4.087 4.096,-4.087c2.262,0 4.095,1.83 4.095,4.087c0,2.257 -1.833,4.087 -4.095,4.087" fill="#fff4e3"/><path d="M273.867,216.942c-1.477,0 -2.673,-1.194 -2.673,-2.667c0,-1.473 1.196,-2.667 2.673,-2.667c1.476,0 2.673,1.194 2.673,2.667c0,1.473 -1.197,2.667 -2.673,2.667" fill="#17242d"/></g></g></g></svg>