<svg version="1.1" xmlns="http://www.w3.org/2000/svg" xmlns:xlink="http://www.w3.org/1999/xlink" width="136.90736" height="106.69037" viewBox="0,0,136.90736,106.69037"><g transform="translate(-170.87784,-125.5811)"><g data-paper-data="{&quot;isPaintingLayer&quot;:true}" fill-rule="nonzero" stroke-linecap="butt" stroke-linejoin="miter" stroke-miterlimit="10" stroke-dasharray="" stroke-dashoffset="0" style="mix-blend-mode: normal"><g stroke="none" stroke-width="1"><path d="M278.12611,152.06563c3.88107,26.79034 -14.61968,51.64459 -41.32292,55.51304c-26.70325,3.86845 -51.49656,-14.71387 -55.37763,-41.50421z" fill="#fff4e3"/><path d="M173.40713,160.06498l8.73977,-1.26611l-9.81062,-7.35341l10.86953,-1.57465l-12.32797,-9.23897c1.73472,-0.55242 3.53333,-0.97768 5.39292,-1.24707c18.34747,-2.65796 35.38098,10.10982 38.0474,28.51569c0.24416,1.68541 0.3572,3.35848 0.35112,5.01143l-18.52844,4.19175z" fill="#fff4e3"/><path d="M294.87054,148.74869l-23.75937,36.47928l-7.29859,-30.84424c0,0 7.00218,-18.31715 25.00327,-20.92493z" fill="#fff4e3"/><path d="M260.73366,154.58524c2.48506,17.15393 -9.36074,33.06769 -26.45826,35.54457c-12.36195,1.79085 -24.08577,-3.93342 -30.57072,-13.72583l18.6899,-2.70757l-22.40382,-10.31146z" fill="#f3e4ce"/></g><g stroke="none" stroke-width="1"><path d="M305.561,149.73922c0.52746,3.64099 -1.98616,7.01927 -5.61626,7.54516c-3.62912,0.52574 -6.99809,-2.00034 -7.52555,-5.64133c-0.52732,-3.64 1.9863,-7.01828 5.61541,-7.54403c3.63011,-0.52589 6.99908,2.0002 7.5264,5.6402" fill="#ce2235"/><path d="M301.22439,130.83163c-0.05776,0.75912 0.41331,1.47195 1.13685,1.7026c1.61025,0.51344 2.83337,2.00246 2.86491,3.87327c0.03116,1.81933 -1.19168,3.48486 -2.93286,3.99274c-1.8517,0.54006 -3.68441,-0.26045 -4.62564,-1.73575c-3.07957,0.15513 -11.29084,0.56361 -11.642,0.55991c-0.43403,-0.00381 -1.39224,-2.48204 -1.39224,-2.48204l-1.25929,0.1794c-2.17221,0.15504 -4.12498,-1.43239 -4.36964,-3.65831c-0.23732,-2.1613 1.33184,-4.19832 3.47559,-4.51494c0.5945,-0.08815 1.17711,-0.0422 1.72005,0.11357c0.47983,0.13864 0.96739,-0.10882 1.13971,-0.57939c0.50019,-1.37391 1.71461,-2.43498 3.25948,-2.65878c2.24259,-0.32488 4.3247,1.23472 4.65073,3.48522c0.00315,0.02177 0.00334,0.04398 0.00649,0.06575c0.5439,-1.58132 2.02819,-2.76737 3.88023,-2.77498c1.83097,-0.00658 3.4877,1.27413 3.95818,3.05002c0.12325,0.46716 0.16334,0.93221 0.12944,1.38172" fill="#ce2235"/><path d="M291.93653,127.03098c0,0 -0.55646,-0.98843 0.24225,-0.14826c0.79871,0.84017 1.61453,1.03825 2.4743,0.35391c0.85977,-0.68434 0.09269,2.61371 0.09269,2.61371l-1.66974,0.37325l-1.14898,-0.53783z" fill="#ce2235"/><path d="M291.49624,146.24864c1.22733,-3.05048 3.98087,-5.38639 7.46154,-5.89063c3.48067,-0.50424 6.78489,0.9541 8.82742,3.53088z" fill="#ffdb5d"/><path d="M299.80896,141.05821c0.71815,4.95725 -2.70594,9.55568 -7.64637,10.27139c-4.94142,0.71585 -9.5287,-2.72198 -10.24684,-7.67923c-0.71815,-4.95725 2.70481,-9.55652 7.64623,-10.27238c4.94043,-0.71571 9.52884,2.72297 10.24699,7.68022" fill="#e8441d"/><path d="M294.92693,141.76546c0.32631,2.25249 -1.22917,4.34209 -3.47374,4.66725c-2.24457,0.32517 -4.32909,-1.23711 -4.6554,-3.4896c-0.32631,-2.25249 1.22917,-4.34209 3.47374,-4.66725c2.24457,-0.32517 4.32909,1.23711 4.6554,3.4896" fill="#fff4e3"/><path d="M293.51467,141.97005c0.21305,1.47065 -0.80208,2.83327 -2.26679,3.04546c-1.4657,0.21233 -2.82479,-0.80634 -3.03784,-2.27698c-0.21305,-1.47065 0.80109,-2.83312 2.26679,-3.04546c1.46471,-0.21219 2.82479,0.80634 3.03784,2.27698" fill="#17242d"/></g><g><path d="M225.7859,205.75663l15.61347,16.85688c1.97795,2.13546 1.84478,5.47496 -0.29694,7.45871c-2.14251,1.98447 -5.48241,1.86185 -7.46035,-0.27361l-0.81147,-0.87609" fill="none" stroke="#ffdb5d" stroke-width="1.575"/><path d="M245.61599,208.07702l-18.7127,-0.68565c-1.75698,-0.06427 -2.55261,-2.22085 -1.26037,-3.41776l9.32565,-8.63776z" fill="#fff4e3" stroke="none" stroke-width="1"/></g><g><path d="M233.72531,204.55697l15.61347,16.85688c1.97795,2.13547 1.84478,5.47496 -0.29694,7.45871c-2.14251,1.98447 -5.48241,1.86185 -7.46035,-0.27362l-0.81147,-0.87609" fill="none" stroke="#ffdb5d" stroke-width="1.575"/><path d="M253.55541,206.87736l-18.71269,-0.68565c-1.75698,-0.06427 -2.55261,-2.22085 -1.26037,-3.41776l9.32565,-8.63776z" fill="#fff4e3" stroke="none" stroke-width="1"/></g></g></g></svg>